# xmcd
#
# Track frame offsets: 
#        200
#        18301
#        42560
#        65313
#        90501
#        112928
#        144827
#        166355
#        190860
#        211728
#
# Disc length: 3151 seconds
#
# Revision: 2
# Processed by: cddbd v1.5.2PL0 Copyright (c) Steve Scherf et al.
# Submitted via: ExactAudioCopyFreeDBPlugin 1.0
#
DISCID=7a0c4d0a
DTITLE=Chick Willis - Blue Class Blues
DYEAR=1998
DGENRE=Blues
TTITLE0=I Wanna Funk Wid You
TTITLE1=If I Didn't Have The Blues
TTITLE2=Trouble
TTITLE3=900 Telephone Line
TTITLE4=I'm A Dreamer
TTITLE5=5 O'Clock In The Morning
TTITLE6=Savannah Lee
TTITLE7=I Ain't Looking For Much Crowd
TTITLE8=Mr. Blues
TTITLE9=Get Off My Case
EXTD=
EXTT0=
EXTT1=
EXTT2=
EXTT3=
EXTT4=
EXTT5=
EXTT6=
EXTT7=
EXTT8=
EXTT9=
PLAYORDER=
